# xmcd
#
# Track frame offsets:
#	150
#	19587
#	37207
#	52370
#	68827
#	83047
#	99522
#	112202
#	127752
#	144212
#	162200
#	176095
#	190837
#	203505
#	216385
#	231085
#	246535
#	262222
#
# Disc length: 3672 seconds
#
# Revision: 2
# Processed by: cddbd v1.5.1PL2 Copyright (c) Steve Scherf et al.
# Submitted via: audiograbber 1.83.01
#
DISCID=0d0e5612
DTITLE=Various Artist - THD0002
DYEAR=1900
DGENRE=Karaoke
TTITLE0=Hill, Faith and McGraw, Tim - Lets Make Love
TTITLE1=Yearwood, Trisha and Neville, Aaron - I Fall To Pieces
TTITLE2=Yoakam, Dwight and Loveless, Patty - Send A Message To My Heart
TTITLE3=Conley, Earl Thomas and Harris, Emmylou - We Believe In Happy Endings
TTITLE4=Campbell, Glen, and Wariner, Steve - Hand That Rocks The Cradle
TTITLE5=Whitley, Keith and Morgan, Lorrie - Til A Tear Becomes A Rose
TTITLE6=Greenwood, Lee and Boggus, Suzy - Hopelessly Yours
TTITLE7=Gill, Vince and McEntire, Reba - Heart Won't Lie, The
TTITLE8=Tucker, Tanya and Overstreet, Paul - I Won't Take Less Than Your Love
TTITLE9=Nelson, Willie and Jennings, Waylon - Mamas Don't Let Your Babies Grow Up
TTITLE9=To Be Cowboys
TTITLE10=Skaggs, Ricky and White, Sharon - Love Can't Ever Get Better Than This
TTITLE11=Wynonna and Wynette, Tammy - Girl Thang
TTITLE12=Owens, Buck and Starr, Ringo - Act Natturally
TTITLE13=Mattea, Kathy and O'Brien, Tim - Battle Hymn Of Love
TTITLE14=Conley, Earl Thomas and Whitley, Keith - Brotherly Love
TTITLE15=Ronstadt, Linda and Neville, Aaron - All My Life
TTITLE16=Tucker, Tanya and Brown, T. Graham - Don't Go Out With Him
TTITLE17=Yoakam, Dwight and Owens, Buck - Streets Of Bakersfield
EXTD=
EXTT0=
EXTT1=
EXTT2=
EXTT3=
EXTT4=
EXTT5=
EXTT6=
EXTT7=
EXTT8=
EXTT9=
EXTT10=
EXTT11=
EXTT12=
EXTT13=
EXTT14=
EXTT15=
EXTT16=
EXTT17=
PLAYORDER=
